<?xml version="1.0" ?><svg width="24px" height="24px" fill="white" viewBox="0 0 24 24" data-name="Layer 1" id="Layer_1" xmlns="http://www.w3.org/2000/svg"><title/><path d="M8,13H2a10,10,0,0,0,10,9C9.44,22,8.18,17.51,8,13Z"/><path d="M2,11H8c.16-4.51,1.42-9,4-9A10,10,0,0,0,2,11Z"/><path d="M12,20c.48,0,1.81-2.4,2-7H10C10.19,17.6,11.52,20,12,20Z"/><path d="M12,4c-.48,0-1.81,2.4-2,7h4C13.81,6.4,12.48,4,12,4Z"/><path d="M12,22a10,10,0,0,0,10-9H16C15.82,17.51,14.56,22,12,22Z"/><path d="M12,2c2.56,0,3.82,4.49,4,9h6A10,10,0,0,0,12,2Z"/></svg>