<?xml version="1.0" encoding="UTF-8" standalone="no"?>
<svg
   width="20px"
   height="20px"
   viewBox="0 0 24 24"
   data-name="Layer 1"
   id="Layer_1"
   fill="#757575"
   version="1.1"
   sodipodi:docname="3bb11950299f00a331f03a5b57a7558e.svg"
   xmlns:inkscape="http://www.inkscape.org/namespaces/inkscape"
   xmlns:sodipodi="http://sodipodi.sourceforge.net/DTD/sodipodi-0.dtd"
   xmlns="http://www.w3.org/2000/svg"
   xmlns:svg="http://www.w3.org/2000/svg">
  <defs
     id="defs19" />
  <sodipodi:namedview
     id="namedview17"
     pagecolor="#ffffff"
     bordercolor="#666666"
     borderopacity="1.0"
     inkscape:pageshadow="2"
     inkscape:pageopacity="0.0"
     inkscape:pagecheckerboard="0" />
  <title
     id="title2" />
  <path
     d="M8,13H2a10,10,0,0,0,10,9C9.44,22,8.18,17.51,8,13Z"
     id="path4" />
  <path
     d="M2,11H8c.16-4.51,1.42-9,4-9A10,10,0,0,0,2,11Z"
     id="path6" />
  <path
     d="M12,20c.48,0,1.81-2.4,2-7H10C10.19,17.6,11.52,20,12,20Z"
     id="path8" />
  <path
     d="M12,4c-.48,0-1.81,2.4-2,7h4C13.81,6.4,12.48,4,12,4Z"
     id="path10" />
  <path
     d="M12,22a10,10,0,0,0,10-9H16C15.82,17.51,14.56,22,12,22Z"
     id="path12" />
  <path
     d="M12,2c2.56,0,3.82,4.49,4,9h6A10,10,0,0,0,12,2Z"
     id="path14" />
</svg>
